<?xml version="1.0" encoding="utf-8"?>
<!-- Generator: Adobe Illustrator 18.1.0, SVG Export Plug-In . SVG Version: 6.00 Build 0)  -->
<svg version="1.1" id="Lag_3" xmlns="http://www.w3.org/2000/svg" x="0px" y="0px"
	 viewBox="0 0 133.8 80.9" enable-background="new 0 0 133.8 80.9" xml:space="preserve">
<g>
	<path fill="#FFFFFF" d="M89.2,75.9c-5.2,0-10-2.2-13.8-6.4l-3.1-3.1c-0.8,1.3-1.7,2.5-2.8,3.6c-3.4,3.6-8,5.6-13,5.6
		c-5,0-9.7-2-13.2-5.5L10.2,37.1c-6.9-7.3-6.9-19.3,0.1-26.3c3.5-3.5,8.2-5.5,13.2-5.5c5,0,9.6,2,13,5.5l3.9,3.8
		c3.2-5.7,9.3-9.3,16.1-9.3c4.9,0,9.5,1.9,13,5.5l3.8,3.8C76.5,8.9,82.6,5,89.2,5c10.3,0,18.7,8.4,18.7,18.7v33.6
		C107.9,67.6,99.5,75.9,89.2,75.9z"/>
	<path d="M89.2,10c7.6,0,13.7,6.2,13.7,13.7v33.6c0,7.5-6.1,13.7-13.7,13.7c-4,0-7.5-1.9-10.2-4.8L69.9,57c0,3.5-1.4,7-4,9.6
		c-2.6,2.7-6,4.1-9.4,4.1s-7-1.4-9.7-4.1l-33-33c-5.1-5.4-5.1-14.2,0-19.3c2.7-2.7,6.2-4,9.6-4s6.9,1.3,9.4,4l14.5,14.5
		c0.1,0,0.2,0.1,0.3,0.1c0.5,0,0.9-0.4,0.5-0.8l-4.8-7.6c1.6-6.3,7.2-10.1,13.1-10.1c3.3,0,6.8,1.2,9.5,4l14.5,14.5
		c0.1,0,0.2,0.1,0.3,0.1c0.4,0,0.8-0.4,0.6-0.8l-4.8-7.6C77.8,14.6,83.1,10,89.2,10 M89.2,0C82.9,0,77,2.7,72.8,7
		c-4.4-4.3-10.2-6.7-16.3-6.7c-6.4,0-12.3,2.6-16.6,6.8c-4.3-4.4-10.1-6.8-16.4-6.8c-6.3,0-12.2,2.5-16.7,6.9
		C2.4,11.6,0,17.5,0,23.9c0,6.3,2.3,12.2,6.6,16.6l0.1,0.1l0.1,0.1l33,33c4.5,4.5,10.5,7,16.8,7c6.2,0,11.9-2.4,16.2-6.7
		c4.6,4.5,10.4,7,16.5,7c13.1,0,23.7-10.6,23.7-23.7V23.7C112.9,10.6,102.3,0,89.2,0L89.2,0z"/>
</g>
<circle cx="119.6" cy="14.6" r="14.2"/>
<g>
	<path fill="#FFFFFF" d="M116.1,10.7c0.9,0,1.6,0.7,1.6,1.6c0,0.8-0.7,1.6-1.6,1.6l0,2.3c0,0.9-0.7,1.6-1.6,1.6
		c-0.9,0-1.6-0.7-1.6-1.6v-2.3c-0.9,0-1.6-0.7-1.6-1.6c0-0.9,0.7-1.6,1.6-1.6H116.1z"/>
	<path fill="#FFFFFF" d="M123.1,17.3c-0.9,0.9-2.3,0.4-2.6-0.7l0.6-0.9c0.1-0.1,0-0.1-0.1-0.1l-1.7,1.7c-0.6,0.6-1.6,0.6-2.3,0
		c-0.6-0.6-0.6-1.7,0-2.3l3.9-3.9c0.6-0.6,1.6-0.6,2.3,0c0.3,0.3,0.5,0.7,0.5,1.1l1.1-1.1c0.3-0.3,0.7-0.5,1.2-0.5
		c0.9,0,1.6,0.7,1.6,1.6v3.9c0,0.9-0.7,1.6-1.6,1.6c-0.7,0-1.4-0.5-1.5-1.2l0.6-0.9c0-0.1-0.1-0.1-0.1-0.1L123.1,17.3z"/>
</g>
<g>
</g>
<g>
</g>
<g>
</g>
<g>
</g>
<g>
</g>
<g>
</g>
</svg>
